<svg width="626" height="804" viewBox="-172 0 798 804" fill="none" xmlns="http://www.w3.org/2000/svg">
<g>
<path d="M21.8822 267.558C28.8811 267.562 34.5663 273.221 34.5663 280.194V625.323C57.428 605.549 81.4533 583.319 107.01 558.574C110.262 555.426 114.961 554.239 119.322 555.474C123.678 556.712 127.049 560.184 128.15 564.561L144.084 627.877C145.184 632.262 143.847 636.908 140.58 640.045C89.6803 688.903 34.5542 732.719 -23.1384 770.636C-26.2879 772.706 -30.2164 773.269 -33.8259 772.176C-37.4363 771.078 -40.3769 768.412 -41.8317 764.942L-64.4791 710.791C-66.5291 705.889 -65.289 700.229 -61.3667 696.634C-52.5482 688.552 -48.6851 680.081 -48.6828 670.933V350.316H-159.316C-166.316 350.316 -171.995 344.652 -172 337.68V280.194C-172 273.218 -166.319 267.558 -159.316 267.558H21.8822Z" fill="black"/>
<path d="M396.043 0C403.041 0.00561035 408.727 5.66322 408.727 12.6359V89.992H577.241C584.238 89.9958 589.921 95.6378 589.925 102.608V158.437C589.925 165.41 584.24 171.069 577.241 171.073H408.727V246.615H604.097C611.092 246.624 616.761 252.281 616.761 259.251V317.575C616.757 324.543 611.089 330.183 604.097 330.192H117.522C110.521 330.192 104.842 324.548 104.837 317.575V259.251C104.838 252.275 110.519 246.615 117.522 246.615H321.289V171.073H152.755C145.753 171.072 140.071 165.412 140.071 158.437V102.608C140.075 95.6359 145.755 89.9927 152.755 89.992H321.289V12.6359C321.289 5.66168 326.953 0.00312552 333.953 0H396.043Z" fill="black"/>
<path d="M222.772 522.461C227.651 520.554 233.329 521.825 236.904 525.854C280.796 575.311 314.792 619.18 338.749 656.561C342.395 662.262 340.899 669.822 335.343 673.702L287.523 707.027C284.655 709.026 281.065 709.769 277.638 709.055C274.21 708.335 271.216 706.207 269.398 703.225C245.486 663.92 213.175 619.459 171.586 570.723C169.195 567.918 168.152 564.198 168.728 560.563C169.307 556.927 171.453 553.721 174.6 551.788L220.756 523.475L222.772 522.461Z" fill="black"/>
<path d="M499.218 351.33C506.218 351.33 511.898 356.992 511.902 363.965V418.819H613.316C620.315 418.821 625.996 424.483 626 431.455V488.94C625.999 495.914 620.316 501.574 613.316 501.576H511.902V713.891C511.902 741.775 504.632 764.946 488.178 781.029C471.767 797.069 448.305 804 420.354 804H325.556C319.571 803.996 314.407 799.83 313.165 793.997L300.579 734.834C299.755 730.934 300.813 726.867 303.457 723.875C306.106 720.882 310.035 719.315 314.027 719.643C344.064 722.122 372.206 723.758 399.39 723.758C409.803 723.757 415.446 721.033 418.592 717.811C421.801 714.516 424.464 708.597 424.464 698.057V501.576H108.283C101.282 501.575 95.5998 495.914 95.5985 488.94V431.455C95.6022 424.483 101.284 418.82 108.283 418.819H424.464V363.965C424.468 356.997 430.134 351.336 437.129 351.33H499.218Z" fill="black"/>
<path d="M-66.5343 26.5589C-62.0174 22.1629 -54.9387 21.7465 -49.9355 25.5839C5.83601 68.3918 54.3163 111.412 93.6021 155.512C98.0273 160.48 97.8255 168.013 93.1517 172.75L52.046 214.421C49.5593 216.94 46.1166 218.302 42.5721 218.184C39.0311 218.065 35.7029 216.472 33.3918 213.797C-1.11028 173.804 -47.3835 131.1 -107.21 86.5405C-110.175 84.3321 -112.014 80.9383 -112.26 77.2586C-112.503 73.579 -111.127 69.9703 -108.482 67.3916L-66.5343 26.5589Z" fill="black"/>
</g>
</svg>
