<svg width="95" height="36" viewBox="0 0 95 36" fill="none" xmlns="http://www.w3.org/2000/svg">
<path d="M6.72148 3.52482L10.6655 21.0861H11.719L15.6621 3.52482H22.3845L14.975 31.5418L14.9531 31.6221L14.9575 31.7059C14.9896 32.3445 15.1112 32.9505 15.3238 33.5194C15.4236 33.7862 15.5251 34.0511 15.6288 34.314H8.19129L0 3.52482H6.72148Z" fill="black"/>
<path d="M30.7309 3.52482C30.6132 3.81304 30.5012 4.10135 30.3961 4.39009C30.1798 4.9855 30.0754 5.63673 30.0753 6.3363V34.314H23.5221V3.52482H30.7309Z" fill="black"/>
<path fill-rule="evenodd" clip-rule="evenodd" d="M49.5623 3.52482C49.6016 3.52482 49.6771 3.53784 49.7963 3.64706C49.9455 3.78393 50.0828 3.95407 50.2065 4.16308L50.2074 4.16395C50.3394 4.38661 50.4425 4.60555 50.5185 4.81967C50.5961 5.03752 50.621 5.18624 50.621 5.27894V13.9613C50.621 14.7676 50.3995 15.538 49.9453 16.2812L49.1951 17.4862C48.9452 17.8803 48.6953 18.2673 48.4457 18.6466L48.2476 18.9469L48.4509 19.2446C48.948 19.9709 49.4465 20.7421 49.9453 21.5576C50.3995 22.3008 50.621 23.0712 50.621 23.8775V34.314H44.1117V26.1258C44.1117 25.4488 43.9485 24.799 43.6296 24.1822C43.3292 23.6008 42.9581 23.0519 42.5183 22.5372C42.1948 22.159 41.8538 21.8019 41.4955 21.4659L41.1309 21.1367C40.6518 20.7204 40.2003 20.3464 39.7767 20.0165L38.9047 19.3372V34.314H32.3515V3.52482H49.5623ZM38.9047 10.0742V18.5025L39.7767 17.8223C40.2001 17.4922 40.6518 17.1184 41.1309 16.7021C41.6245 16.2731 42.0869 15.806 42.5183 15.3016L42.8347 14.9122C43.1376 14.5177 43.4017 14.1079 43.627 13.6837C43.9485 13.0786 44.1116 12.4346 44.1117 11.7576C44.1117 11.5829 44.0943 11.3402 44.0643 11.0425C44.0478 10.8782 44.0199 10.7133 43.9679 10.571C43.9268 10.4585 43.813 10.1982 43.5201 10.1012L43.4377 10.0742H38.9047Z" fill="black"/>
<path d="M59.0963 28.196C59.3362 28.1961 59.4907 28.3761 59.4907 28.5505V32.8113C59.4906 32.9859 59.3358 33.1657 59.0963 33.1658H54.9454C54.7061 33.1656 54.5511 32.9859 54.551 32.8113V28.5505C54.551 28.3762 54.7057 28.1962 54.9454 28.196H59.0963Z" fill="black"/>
<path d="M67.9502 11.9802C68.2636 11.9804 68.5181 12.2338 68.5181 12.546V27.9995C69.5418 27.1142 70.6175 26.1188 71.7618 25.0108C71.9074 24.8698 72.1179 24.8167 72.3131 24.872C72.5081 24.9274 72.6591 25.0829 72.7084 25.2788L73.4218 28.1139C73.4711 28.3102 73.4113 28.5183 73.265 28.6587C70.9859 30.8464 68.5176 32.8083 65.9343 34.5061C65.7933 34.5988 65.6174 34.624 65.4558 34.5751C65.2941 34.5259 65.1625 34.4065 65.0973 34.2511L64.0833 31.8264C63.9915 31.607 64.047 31.3535 64.2226 31.1926C64.6175 30.8307 64.7905 30.4514 64.7906 30.0418V15.6858H59.8369C59.5235 15.6858 59.2692 15.4322 59.269 15.12V12.546C59.269 12.2336 59.5233 11.9802 59.8369 11.9802H67.9502Z" fill="#E63737"/>
<path d="M84.7035 0C85.0168 0.00025121 85.2714 0.253577 85.2714 0.565788V4.02949H92.8168C93.1301 4.02966 93.3845 4.28229 93.3847 4.59441V7.09418C93.3847 7.40644 93.1302 7.6598 92.8168 7.65997H85.2714V11.0425H94.0193C94.3325 11.0429 94.5863 11.2961 94.5863 11.6083V14.2198C94.5861 14.5318 94.3324 14.7843 94.0193 14.7847H72.2325C71.9191 14.7847 71.6647 14.532 71.6646 14.2198V11.6083C71.6646 11.2959 71.919 11.0425 72.2325 11.0425H81.3563V7.65997H73.8101C73.4966 7.65993 73.2422 7.40652 73.2422 7.09418V4.59441C73.2423 4.28221 73.4967 4.02953 73.8101 4.02949H81.3563V0.565788C81.3563 0.253508 81.61 0.000139949 81.9234 0H84.7035Z" fill="#E63737"/>
<path d="M76.9452 23.3938C77.1636 23.3084 77.4179 23.3653 77.578 23.5457C79.5432 25.7602 81.0654 27.7245 82.1381 29.3983C82.3014 29.6535 82.2344 29.992 81.9856 30.1658L79.8445 31.6579C79.716 31.7474 79.5553 31.7807 79.4018 31.7487C79.2484 31.7165 79.1143 31.6212 79.0329 31.4877C77.9622 29.7278 76.5155 27.737 74.6533 25.5548C74.5462 25.4292 74.4995 25.2626 74.5253 25.0999C74.5512 24.937 74.6473 24.7935 74.7882 24.7069L76.8549 23.4392L76.9452 23.3938Z" fill="#E63737"/>
<path d="M89.3232 15.7312C89.6367 15.7312 89.891 15.9847 89.8912 16.297V18.7531H94.4321C94.7454 18.7532 94.9998 19.0067 95 19.3189V21.8928C94.9999 22.2051 94.7455 22.4585 94.4321 22.4586H89.8912V31.9653C89.8912 33.2138 89.5657 34.2513 88.8289 34.9715C88.0941 35.6896 87.0436 36 85.792 36H81.5474C81.2794 35.9998 81.0482 35.8133 80.9926 35.5521L80.429 32.903C80.3921 32.7284 80.4395 32.5463 80.5579 32.4123C80.6765 32.2783 80.8524 32.2081 81.0312 32.2228C82.3761 32.3338 83.6362 32.4071 84.8534 32.4071C85.3196 32.407 85.5723 32.2851 85.7132 32.1408C85.8568 31.9932 85.9761 31.7282 85.9761 31.2563V22.4586H71.8188C71.5054 22.4586 71.2509 22.2051 71.2509 21.8928V19.3189C71.251 19.0067 71.5054 18.7531 71.8188 18.7531H85.9761V16.297C85.9763 15.9849 86.23 15.7315 86.5432 15.7312H89.3232Z" fill="#E63737"/>
<path d="M63.9913 1.1892C64.1935 0.992369 64.5105 0.973725 64.7345 1.14555C67.2317 3.06232 69.4024 4.9886 71.1615 6.96321C71.3596 7.18566 71.3506 7.52296 71.1413 7.73505L69.3008 9.60093C69.1894 9.71371 69.0353 9.77473 68.8766 9.76945C68.718 9.7641 68.569 9.69277 68.4655 9.57299C66.9207 7.78226 64.8487 5.87015 62.17 3.87495C62.0372 3.77606 61.9549 3.6241 61.9439 3.45934C61.933 3.29458 61.9946 3.133 62.113 3.01754L63.9913 1.1892Z" fill="#E63737"/>
</svg>
