<svg width="895" height="340" viewBox="0 0 895 340" fill="none" xmlns="http://www.w3.org/2000/svg">
<path d="M63.3234 33.29L100.48 199.146H110.405L147.554 33.29H210.885L141.08 297.895L140.874 298.653L140.915 299.445C141.218 305.476 142.363 311.199 144.367 316.572C145.307 319.092 146.263 321.594 147.24 324.077H77.1705L0 33.29H63.3234Z" fill="white"/>
<path d="M289.518 33.29C288.408 36.012 287.353 38.735 286.363 41.462C284.325 47.0852 283.341 53.2358 283.341 59.8428V324.077H221.603V33.29H289.518Z" fill="white"/>
<path fill-rule="evenodd" clip-rule="evenodd" d="M466.929 33.29C467.3 33.29 468.011 33.4129 469.134 34.4445C470.54 35.7371 471.833 37.3439 472.998 39.318L473.006 39.3262C474.25 41.4291 475.221 43.4968 475.937 45.5191C476.669 47.5766 476.903 48.9812 476.903 49.8567V131.857C476.903 139.472 474.816 146.748 470.537 153.767L463.469 165.147C461.115 168.869 458.761 172.524 456.409 176.106L454.543 178.943L456.459 181.755C461.142 188.614 465.838 195.898 470.537 203.599C474.816 210.619 476.903 217.894 476.903 225.509V324.077H415.578V246.743C415.578 240.35 414.041 234.213 411.037 228.387C408.206 222.897 404.71 217.713 400.567 212.852C397.519 209.28 394.307 205.907 390.931 202.733L387.496 199.625C382.983 195.693 378.729 192.16 374.739 189.045L366.523 182.629V324.077H304.785V33.29H466.929ZM366.523 95.1449V174.746L374.739 168.322C378.727 165.204 382.983 161.674 387.496 157.742C392.147 153.69 396.503 149.279 400.567 144.515L403.548 140.837C406.402 137.112 408.89 133.241 411.012 129.235C414.041 123.52 415.578 117.437 415.578 111.044C415.578 109.394 415.414 107.102 415.132 104.29C414.976 102.738 414.714 101.181 414.224 99.837C413.836 98.7747 412.765 96.3165 410.005 95.4006L409.228 95.1449H366.523Z" fill="white"/>
<path d="M556.749 266.295C559.009 266.296 560.465 267.997 560.465 269.643V309.885C560.464 311.534 559.005 313.232 556.749 313.233H517.644C515.389 313.231 513.929 311.533 513.928 309.885V269.643C513.928 267.997 515.385 266.297 517.644 266.295H556.749Z" fill="white"/>
<path d="M640.162 113.146C643.115 113.148 645.513 115.541 645.513 118.49V264.44C655.157 256.078 665.291 246.677 676.072 236.213C677.444 234.882 679.426 234.38 681.266 234.902C683.103 235.426 684.525 236.894 684.99 238.745L691.711 265.52C692.175 267.374 691.611 269.339 690.233 270.666C668.762 291.327 645.508 309.856 621.171 325.891C619.842 326.766 618.185 327.004 616.663 326.542C615.14 326.078 613.899 324.95 613.285 323.483L603.732 300.583C602.867 298.51 603.39 296.117 605.045 294.596C608.765 291.179 610.394 287.596 610.395 283.728V148.143H563.726C560.774 148.143 558.378 145.748 558.376 142.8V118.49C558.376 115.54 560.772 113.146 563.726 113.146H640.162Z" fill="#E63737"/>
<path d="M797.996 0C800.948 0.00237253 803.347 2.39489 803.347 5.34355V38.0563H874.432C877.383 38.0579 879.781 40.4439 879.782 43.3916V67.0006C879.782 69.9497 877.384 72.3425 874.432 72.3441H803.347V104.29H885.76C888.711 104.294 891.102 106.686 891.103 109.634V134.298C891.101 137.244 888.71 139.63 885.76 139.633H680.506C677.553 139.633 675.157 137.247 675.156 134.298V109.634C675.156 106.684 677.552 104.29 680.506 104.29H766.462V72.3441H695.369C692.415 72.3438 690.018 69.9505 690.018 67.0006V43.3916C690.02 40.4431 692.416 38.0566 695.369 38.0563H766.462V5.34355C766.462 2.39424 768.852 0.00132174 771.805 0H797.996Z" fill="#E63737"/>
<path d="M724.904 220.941C726.963 220.135 729.358 220.672 730.866 222.376C749.381 243.291 763.722 261.842 773.828 277.65C775.366 280.061 774.734 283.258 772.391 284.899L752.219 298.992C751.009 299.837 749.494 300.151 748.049 299.849C746.603 299.545 745.34 298.645 744.573 297.384C734.486 280.762 720.856 261.96 703.312 241.35C702.304 240.164 701.864 238.591 702.107 237.054C702.351 235.516 703.256 234.16 704.584 233.343L724.054 221.37L724.904 220.941Z" fill="#E63737"/>
<path d="M841.519 148.572C844.472 148.572 846.868 150.967 846.87 153.916V177.112H889.649C892.602 177.113 894.998 179.508 895 182.456V206.766C894.999 209.715 892.602 212.108 889.649 212.109H846.87V301.894C846.87 313.686 843.803 323.485 836.862 330.286C829.939 337.069 820.042 340 808.251 340H768.262C765.738 339.998 763.559 338.236 763.036 335.77L757.726 310.751C757.378 309.102 757.825 307.381 758.94 306.116C760.057 304.85 761.715 304.188 763.399 304.327C776.07 305.375 787.941 306.067 799.408 306.067C803.801 306.066 806.181 304.915 807.508 303.552C808.862 302.158 809.985 299.655 809.985 295.198V212.109H676.609C673.656 212.109 671.259 209.715 671.258 206.766V182.456C671.26 179.508 673.656 177.113 676.609 177.112H809.985V153.916C809.987 150.969 812.377 148.575 815.328 148.572H841.519Z" fill="#E63737"/>
<path d="M602.865 11.2314C604.77 9.37238 607.756 9.19629 609.867 10.819C633.393 28.9219 653.844 47.1146 670.416 65.7636C672.283 67.8646 672.198 71.0502 670.226 73.0533L652.886 90.6755C651.837 91.7406 650.385 92.3169 648.89 92.267C647.396 92.2165 645.992 91.5429 645.017 90.4116C630.463 73.4991 610.943 55.4403 585.707 36.5967C584.456 35.6628 583.68 34.2276 583.576 32.6715C583.474 31.1155 584.054 29.5894 585.17 28.4989L602.865 11.2314Z" fill="#E63737"/>
</svg>
